<?xml version="1.0" encoding="UTF-8"?>
<svg version="1.1" xmlns="http://www.w3.org/2000/svg" width="512" height="512">
<path d="M0 0 C1.15799606 0.00141495 2.31599213 0.0028299 3.50907898 0.00428772 C7.15582013 0.00982128 10.8024966 0.02236073 14.44921875 0.03515625 C16.94335848 0.04017986 19.43749918 0.04474124 21.93164062 0.04882812 C28.0000441 0.05891188 34.06831025 0.07849958 40.13671875 0.09765625 C40.13671875 13.95765625 40.13671875 27.81765625 40.13671875 42.09765625 C24.62671875 42.09765625 9.11671875 42.09765625 -6.86328125 42.09765625 C-6.86328125 52.32765625 -6.86328125 62.55765625 -6.86328125 73.09765625 C-4.22593994 73.07670898 -1.58859863 73.05576172 1.12866211 73.03417969 C9.90555501 72.96748705 18.68246 72.92355353 27.45954037 72.89040756 C32.7738647 72.86965597 38.08792638 72.84156928 43.40209961 72.79589844 C48.54390048 72.75199253 53.68545094 72.72842607 58.827425 72.71814728 C60.77554827 72.71083531 62.72366 72.69656053 64.67167473 72.67473602 C79.91189811 72.5109999 95.29614692 73.40153389 108.88671875 81.09765625 C109.58152344 81.48083008 110.27632813 81.86400391 110.9921875 82.25878906 C126.74145691 91.35435337 138.43241748 105.81820351 144.13671875 123.09765625 C144.38382253 123.82196744 144.6309263 124.54627863 144.88551807 125.29253864 C147.3578993 133.26410719 147.54434718 140.82874383 147.47729492 149.1159668 C147.47637398 150.61915215 147.4767797 152.1223388 147.47839069 153.62552357 C147.4790628 157.61954407 147.46178545 161.61329017 147.44055939 165.6072464 C147.42336421 169.3669564 147.42266408 173.12660259 147.42053223 176.88635254 C147.40484447 187.85265622 147.36296066 198.81890979 147.32421875 209.78515625 C147.26234375 234.30828125 147.20046875 258.83140625 147.13671875 284.09765625 C94.00671875 284.09765625 40.87671875 284.09765625 -13.86328125 284.09765625 C-13.86328125 319.07765625 -13.86328125 354.05765625 -13.86328125 390.09765625 C-33.00328125 390.09765625 -52.14328125 390.09765625 -71.86328125 390.09765625 C-71.86328125 355.11765625 -71.86328125 320.13765625 -71.86328125 284.09765625 C-144.46328125 284.09765625 -217.06328125 284.09765625 -291.86328125 284.09765625 C-291.86328125 277.82765625 -291.86328125 271.55765625 -291.86328125 265.09765625 C-268.10328125 264.60265625 -268.10328125 264.60265625 -243.86328125 264.09765625 C-248.31828125 260.63265625 -248.31828125 260.63265625 -252.86328125 257.09765625 C-265.13717703 246.5745414 -271.63561905 233.02754252 -273.86328125 217.09765625 C-275.29271036 197.96529736 -268.99993856 182.40645441 -257.05859375 167.90625 C-248.12996395 158.11541346 -233.83711721 150.81519841 -220.60546875 149.86328125 C-218.00853326 149.84999769 -215.45271523 149.91084338 -212.86328125 150.09765625 C-212.84910156 149.12828125 -212.83492188 148.15890625 -212.8203125 147.16015625 C-212.18673492 125.66454773 -204.11537417 108.21595888 -188.86328125 93.09765625 C-188.2290625 92.42992187 -187.59484375 91.7621875 -186.94140625 91.07421875 C-171.3261795 75.80446162 -147.98434477 72.91080721 -127.24145508 72.98413086 C-126.13769531 72.98398483 -125.03393555 72.98383881 -123.89672852 72.98368835 C-120.28790242 72.98437897 -116.67912946 72.99213112 -113.0703125 73 C-110.55254647 73.00186721 -108.03478007 73.00328968 -105.51701355 73.00428772 C-99.59228012 73.00770158 -93.66756343 73.01556414 -87.74283856 73.02563721 C-79.13900679 73.03994366 -70.53516851 73.0451255 -61.93132782 73.05144501 C-49.90863014 73.06111197 -37.88598138 73.0802852 -25.86328125 73.09765625 C-25.86328125 49.33765625 -25.86328125 25.57765625 -25.86328125 1.09765625 C-17.15087777 0.42747137 -8.70137805 -0.0411186 0 0 Z " fill="#606377" transform="translate(331.86328125,60.90234375)"/>
<path d="M0 0 C27.72 0 55.44 0 84 0 C84.103125 9.6525 84.20625 19.305 84.3125 29.25 C84.35802002 32.29379883 84.40354004 35.33759766 84.45043945 38.47363281 C84.46504107 40.88345232 84.4777825 43.29328413 84.48828125 45.703125 C84.51386108 46.95657715 84.53944092 48.2100293 84.5657959 49.50146484 C84.56640015 50.69884277 84.56700439 51.8962207 84.56762695 53.12988281 C84.57873001 54.16912903 84.58983307 55.20837524 84.60127258 56.27911377 C83.78674897 59.96500626 82.02729337 60.88486022 79 63 C75.73020536 67.84831619 75.14442632 72.31860625 76 78 C77.35407557 82.3376319 79.29226337 85.29226337 82.5 88.5 C88.69548763 91.15520898 95.15284999 90.96599733 101.5 88.8125 C105.26916441 86.0798558 107.52501042 83.42496874 109 79 C109.51255795 73.64755061 109.69236411 69.33697897 107.1875 64.5 C105.20446251 62.08672838 105.20446251 62.08672838 103.38456726 60.70353699 C101.37601897 58.23226932 101.63925062 56.39715334 101.65942383 53.2434082 C101.65965042 52.06241043 101.65987701 50.88141266 101.66011047 49.66462708 C101.67559433 48.38955795 101.69107819 47.11448883 101.70703125 45.80078125 C101.71127609 44.49545944 101.71552094 43.19013763 101.71989441 41.84526062 C101.73133911 38.37794721 101.76080246 34.91101187 101.79400635 31.44384766 C101.82471567 27.90467442 101.83840155 24.36543999 101.85351562 20.82617188 C101.88567295 13.88395945 101.93686446 6.94199789 102 0 C112.85808582 -0.04654664 123.71614751 -0.0819819 134.57431316 -0.10362434 C139.61736793 -0.11401687 144.66035393 -0.12809234 149.70336914 -0.15087891 C154.57929463 -0.17277009 159.45515438 -0.18460261 164.33112526 -0.18975449 C166.18204596 -0.19342125 168.03296347 -0.20058061 169.88385582 -0.21146011 C191.32278121 -0.33235061 208.94007405 2.14792338 226 16 C227.03125 16.7425 228.0625 17.485 229.125 18.25 C242.08224921 30.64389054 249.85630332 47.42602845 250.36076355 65.38471985 C250.36933813 67.63448469 250.36182171 69.88435234 250.34057617 72.1340332 C250.34093778 73.39444774 250.34129938 74.65486227 250.34167194 75.95347118 C250.33982026 79.31970908 250.32513419 82.6853716 250.30384064 86.05150604 C250.28657526 89.22650682 250.28594158 92.40149605 250.28381348 95.57653809 C250.26815986 104.82190121 250.22627609 114.06720494 250.1875 123.3125 C250.125625 143.999375 250.06375 164.68625 250 186 C182.02 186 114.04 186 44 186 C43.6875 123.875 43.6875 123.875 43.61206055 104.32763672 C43.57545552 98.4973166 43.57545552 98.4973166 43.5349884 92.66702271 C43.5147503 89.41658481 43.50518285 86.16629475 43.49911946 82.9158057 C43.4889035 79.66236932 43.459099 76.40909786 43.43237305 73.15576172 C43.43379901 72.02572157 43.43522497 70.89568142 43.43669415 69.73139763 C43.19369146 48.83797677 35.61289043 30.52575783 21.38671875 15.28515625 C15.11297727 9.2783825 7.65288867 5.01129672 0 1 C0 0.67 0 0.34 0 0 Z " fill="#F4F4F4" transform="translate(223,140)"/>
<path d="M0 0 C14.07561419 10.4084885 22.9905034 26.23019842 26.25390625 43.2265625 C26.63378199 47.63531215 26.63549719 52.00778996 26.59448242 56.43066406 C26.5949205 57.69062698 26.59535858 58.9505899 26.59580994 60.24873352 C26.59666154 63.66333606 26.57917348 67.07761463 26.55808806 70.49214268 C26.53917985 74.07553474 26.53755979 77.65893635 26.53401184 81.24237061 C26.52473252 88.01003301 26.50017525 94.77754793 26.46996337 101.54514575 C26.42997912 110.70295455 26.4139312 119.86080443 26.39645672 129.01867867 C26.36835051 143.42141682 26.308554 157.82384392 26.25390625 172.2265625 C-11.03609375 172.2265625 -48.32609375 172.2265625 -86.74609375 172.2265625 C-83.81895741 169.88485343 -81.03978718 167.72174211 -77.99609375 165.6015625 C-66.61570912 156.95931553 -58.00719326 144.39891943 -55.24609375 130.2265625 C-55.02446514 128.231905 -54.86158986 126.23016886 -54.74609375 124.2265625 C-54.66617188 122.97101563 -54.58625 121.71546875 -54.50390625 120.421875 C-53.79753297 103.79895972 -59.19311235 89.84472687 -69.80859375 77.0390625 C-80.21015249 66.07239361 -92.91221329 60.52228209 -107.74609375 58.2265625 C-108.47098101 37.7686331 -102.23231822 21.59357727 -88.25 6.5390625 C-63.39597421 -17.68714986 -28.34669907 -18.3064031 0 0 Z " fill="#DEE2E8" transform="translate(233.74609375,153.7734375)"/>
<path d="M0 0 C11.59260533 8.83605748 19.8713761 20.13173542 22.8984375 34.578125 C23.11455749 36.32270802 23.28132977 38.07411144 23.3984375 39.828125 C23.46675781 40.77945313 23.53507812 41.73078125 23.60546875 42.7109375 C24.133038 57.67827244 19.47027921 71.28570838 9.7109375 82.640625 C-0.77457012 93.55058346 -13.75505139 99.74845287 -28.86914062 100.12060547 C-45.84259391 100.26867176 -58.84377195 94.94579481 -71.27734375 83.3125 C-83.1129316 70.66135063 -86.15504714 56.09338498 -85.87890625 39.34765625 C-85.3472296 26.66412628 -78.54993714 15.19302175 -70.05078125 6.0625 C-50.24215789 -12.00852482 -22.6295674 -14.88589484 0 0 Z " fill="#F3F3F3" transform="translate(150.6015625,226.171875)"/>
<path d="M0 0 C13.04427463 11.11337871 22.51762127 27.28958946 24.02182579 44.48181915 C24.11526846 47.75952097 24.12173378 51.02483134 24.09057617 54.30371094 C24.09123329 56.14976425 24.09123329 56.14976425 24.09190369 58.03311157 C24.09018712 61.36723126 24.07527267 64.70077495 24.05418181 68.0347929 C24.03526813 71.53410286 24.03365312 75.03342269 24.03010559 78.53277588 C24.02082784 85.14106817 23.99627277 91.74920934 23.96605712 98.35743546 C23.93237908 105.88838338 23.91599362 113.41933899 23.90097082 120.95034361 C23.8697187 136.42531621 23.81704257 151.90013852 23.75 167.375 C21.51402891 164.43785507 19.57704924 161.48495742 17.73828125 158.28125 C17.15369141 157.26546875 16.56910156 156.2496875 15.96679688 155.203125 C15.33837891 154.10484375 14.70996094 153.0065625 14.0625 151.875 C13.39538409 150.71342574 12.7280623 149.55196971 12.06054688 148.390625 C9.95284526 144.72114182 7.85066611 141.04851441 5.75 137.375 C5.41321228 136.78605957 5.07642456 136.19711914 4.72943115 135.59033203 C1.72871135 130.34203284 -1.26992713 125.09254623 -4.26635742 119.84179688 C-8.73874005 112.00668544 -13.23621223 104.18634234 -17.75 96.375 C-23.00256806 87.28409685 -28.23095104 78.17980629 -33.4375 69.0625 C-33.77538544 68.47084045 -34.11327087 67.87918091 -34.46139526 67.26959229 C-37.26819727 62.35412984 -40.07340008 57.43775541 -42.87792969 52.52099609 C-48.91515407 41.93743544 -54.97480039 31.36711392 -61.0625 20.8125 C-61.67295166 19.75401855 -62.28340332 18.69553711 -62.91235352 17.60498047 C-64.09593042 15.5546923 -65.28087741 13.50519435 -66.46728516 11.45654297 C-67.71082679 9.3069973 -68.9497256 7.15476189 -70.18505859 5.00048828 C-70.80848145 3.91880371 -71.4319043 2.83711914 -72.07421875 1.72265625 C-72.63584717 0.74433838 -73.19747559 -0.23397949 -73.77612305 -1.24194336 C-75.1677416 -3.69570004 -75.1677416 -3.69570004 -77.25 -5.625 C-50.93332113 -18.74089318 -24.14960393 -17.85789745 0 0 Z " fill="#B5BACD" transform="translate(236.25,155.625)"/>
<path d="M0 0 C14.85 0 29.7 0 45 0 C45 34.98 45 69.96 45 106 C30.15 106 15.3 106 0 106 C0 71.02 0 36.04 0 0 Z " fill="#F4F4F4" transform="translate(267,345)"/>
<path d="M0 0 C5.29012124 4.40843437 10.18808428 9.07559794 15 14 C20.29012124 9.59156563 25.18808428 4.92440206 30 0 C35.66129431 4.69766975 40.85228904 9.74723372 46 15 C41.59156563 20.29012124 36.92440206 25.18808428 32 30 C36.40843437 35.29012124 41.07559794 40.18808428 46 45 C41.30233025 50.66129431 36.25276628 55.85228904 31 61 C25.70987876 56.59156563 20.81191572 51.92440206 16 47 C10.70987876 51.40843437 5.81191572 56.07559794 1 61 C-3.32504836 59.34136495 -6.09418825 56.128959 -9.25 52.875 C-9.80429688 52.31167969 -10.35859375 51.74835938 -10.9296875 51.16796875 C-12.29104485 49.78313972 -13.64614859 48.39216796 -15 47 C-13.34136495 42.67495164 -10.128959 39.90581175 -6.875 36.75 C-6.03001953 35.91855469 -6.03001953 35.91855469 -5.16796875 35.0703125 C-3.78313972 33.70895515 -2.39216796 32.35385141 -1 31 C-5.40843437 25.70987876 -10.07559794 20.81191572 -15 16 C-10.30233025 10.33870569 -5.25276628 5.14771096 0 0 Z " fill="hsl(240 3.7% 15.9%)"  transform="translate(104,241)"/>
<!-- Heree -->
<path d="M0 0 C17.49 0 34.98 0 53 0 C53 13.86 53 27.72 53 42 C37.49 42 21.98 42 6 42 C6 28.47 6 14.94 6 1 C4.02 1 2.04 1 0 1 C0 0.67 0 0.34 0 0 Z " fill="hsl(240 3.7% 15.9%)" transform="translate(319,61)"/>
<path d="M0 0 C70.95 0 141.9 0 215 0 C215 2.31 215 4.62 215 7 C144.05 7 73.1 7 0 7 C0 4.69 0 2.38 0 0 Z " fill="#B6BBCC" transform="translate(46,332)"/>
<path d="M0 0 C67.98 0 135.96 0 206 0 C206 2.31 206 4.62 206 7 C138.02 7 70.04 7 0 7 C0 4.69 0 2.38 0 0 Z " fill="#B7BBCD" transform="translate(267,332)"/>
<path d="M0 0 C14.85 0 29.7 0 45 0 C45 10.23 45 20.46 45 31 C30.15 31 15.3 31 0 31 C0 20.77 0 10.54 0 0 Z " fill="#B9BDCD" transform="translate(267,345)"/>
<path d="M0 0 C1.98 0 3.96 0 6 0 C6 42.24 6 84.48 6 128 C4.02 128 2.04 128 0 128 C0 85.76 0 43.52 0 0 Z " fill="#F3F3F1" transform="translate(313,68)"/>
<path d="M0 0 C2.87029869 1.79393668 4.49131638 2.98263276 6 6 C6.55512815 10.63213493 6.6364242 13.98172127 4.125 18 C0.59460235 21.3227272 -2.04944675 21.34888349 -6.7421875 21.2734375 C-10.23202496 20.85079283 -11.75191361 19.65682937 -14 17 C-15.93624439 12.72412698 -16.23247687 10.77492289 -14.875 6.25 C-11.18539527 -0.14531487 -7.15133819 -1.18551596 0 0 Z M-8 8 C-8.16666667 10.5 -8.16666667 10.5 -8 13 C-6.9404123 14.28322547 -6.9404123 14.28322547 -4.5 14.125 C-2.0595877 14.28322547 -2.0595877 14.28322547 -1 13 C-0.83333333 10.5 -0.83333333 10.5 -1 8 C-2.0595877 6.71677453 -2.0595877 6.71677453 -4.5 6.875 C-6.9404123 6.71677453 -6.9404123 6.71677453 -8 8 Z " fill="#5D6074" transform="translate(360,387)"/>
<path d="M0 0 C2.50160818 1.87620613 3.61945652 3.23891303 5 6 C5.43023798 9.87214182 5.31669086 11.52496371 3.125 14.8125 C0.40819426 17.60921179 -0.39613102 17.94303123 -4.3125 18.3125 C-8.69433524 17.94115803 -10.15956566 17.34168746 -13 14 C-14.05501118 11.24524859 -14.35920789 8.92978938 -14 6 C-10.69178389 -0.17533674 -6.84687309 -1.53574724 0 0 Z M-6 7 C-6 8.32 -6 9.64 -6 11 C-4.68 10.67 -3.36 10.34 -2 10 C-2.33 9.01 -2.66 8.02 -3 7 C-3.99 7 -4.98 7 -6 7 Z " fill="#5E6074" transform="translate(401,361)"/>
<path d="M0 0 C2.31 0 4.62 0 7 0 C7 6.93 7 13.86 7 21 C4.69 21 2.38 21 0 21 C0 14.07 0 7.14 0 0 Z " fill="#5D6074" transform="translate(77,189)"/>
<path d="M0 0 C5.29012124 4.40843437 10.18808428 9.07559794 15 14 C13.68 15.65 12.36 17.3 11 19 C6.92623969 17.38989473 4.23492931 14.46177729 1.25 11.375 C0.74339844 10.859375 0.23679687 10.34375 -0.28515625 9.8125 C-1.52803902 8.54616661 -2.76465276 7.2736856 -4 6 C-2.84826645 3.53199953 -1.95216435 1.95216435 0 0 Z " fill="#5E6174" transform="translate(53,203)"/>
<path d="M0 0 C6.6 0 13.2 0 20 0 C20 2.31 20 4.62 20 7 C13.4 7 6.8 7 0 7 C0 4.69 0 2.38 0 0 Z " fill="#5E6074" transform="translate(36,232)"/>
<path d="M0 0 C2.31 0 4.62 0 7 0 C7 2.31 7 4.62 7 7 C4.69 7 2.38 7 0 7 C0 4.69 0 2.38 0 0 Z " fill="#A8AFC3" transform="translate(117,162)"/>
<path d="M0 0 C2.31 0 4.62 0 7 0 C7 2.31 7 4.62 7 7 C4.69 7 2.38 7 0 7 C0 4.69 0 2.38 0 0 Z " fill="#A8AFC3" transform="translate(117,146)"/>
<path d="M0 0 C2.31 0 4.62 0 7 0 C7 2.31 7 4.62 7 7 C4.69 7 2.38 7 0 7 C0 4.69 0 2.38 0 0 Z " fill="#A8AFC3" transform="translate(117,130)"/>
<path d="M0 0 C2.31 0 4.62 0 7 0 C7 2.31 7 4.62 7 7 C4.69 7 2.38 7 0 7 C0 4.69 0 2.38 0 0 Z " fill="#A8AFC3" transform="translate(117,114)"/>
<path d="M0 0 C2.31 0 4.62 0 7 0 C7 2.31 7 4.62 7 7 C4.69 7 2.38 7 0 7 C0 4.69 0 2.38 0 0 Z " fill="#A9AEC4" transform="translate(293,98)"/>
<path d="M0 0 C2.31 0 4.62 0 7 0 C7 2.31 7 4.62 7 7 C4.69 7 2.38 7 0 7 C0 4.69 0 2.38 0 0 Z " fill="#A9AEC4" transform="translate(277,98)"/>
<path d="M0 0 C2.31 0 4.62 0 7 0 C7 2.31 7 4.62 7 7 C4.69 7 2.38 7 0 7 C0 4.69 0 2.38 0 0 Z " fill="#A9AEC4" transform="translate(261,98)"/>
<path d="M0 0 C2.31 0 4.62 0 7 0 C7 2.31 7 4.62 7 7 C4.69 7 2.38 7 0 7 C0 4.69 0 2.38 0 0 Z " fill="#A9AEC4" transform="translate(245,98)"/>
<path d="M0 0 C2.31 0 4.62 0 7 0 C7 2.31 7 4.62 7 7 C4.69 7 2.38 7 0 7 C0 4.69 0 2.38 0 0 Z " fill="#A9AEC4" transform="translate(229,98)"/>
<path d="M0 0 C2.31 0 4.62 0 7 0 C7 2.31 7 4.62 7 7 C4.69 7 2.38 7 0 7 C0 4.69 0 2.38 0 0 Z " fill="#A9AEC4" transform="translate(213,98)"/>
<path d="M0 0 C2.31 0 4.62 0 7 0 C7 2.31 7 4.62 7 7 C4.69 7 2.38 7 0 7 C0 4.69 0 2.38 0 0 Z " fill="#A9AEC4" transform="translate(197,98)"/>
<path d="M0 0 C2.31 0 4.62 0 7 0 C7 2.31 7 4.62 7 7 C4.69 7 2.38 7 0 7 C0 4.69 0 2.38 0 0 Z " fill="#A9AEC4" transform="translate(181,98)"/>
<path d="M0 0 C2.31 0 4.62 0 7 0 C7 2.31 7 4.62 7 7 C4.69 7 2.38 7 0 7 C0 4.69 0 2.38 0 0 Z " fill="#A9AEC4" transform="translate(165,98)"/>
<path d="M0 0 C2.31 0 4.62 0 7 0 C7 2.31 7 4.62 7 7 C4.69 7 2.38 7 0 7 C0 4.69 0 2.38 0 0 Z " fill="#A9AEC4" transform="translate(149,98)"/>
<path d="M0 0 C2.31 0 4.62 0 7 0 C7 2.31 7 4.62 7 7 C4.69 7 2.38 7 0 7 C0 4.69 0 2.38 0 0 Z " fill="#A9AEC4" transform="translate(133,98)"/>
<path d="M0 0 C2.31 0 4.62 0 7 0 C7 2.31 7 4.62 7 7 C4.69 7 2.38 7 0 7 C0 4.69 0 2.38 0 0 Z " fill="#A9AEC4" transform="translate(117,98)"/>
</svg>
