<?xml version="1.0" encoding="UTF-8"?>
<svg version="1.1" xmlns="http://www.w3.org/2000/svg" width="512" height="512">
<path d="M0 0 C1.92792565 1.12053107 3.85534422 2.24193461 5.782547 3.3637085 C6.85593228 3.98809689 7.92931757 4.61248528 9.03522968 5.25579453 C12.17149907 7.1008947 15.22456811 9.01270983 18.26171875 11.015625 C19.3091626 11.70382324 20.35660645 12.39202148 21.43579102 13.10107422 C23.04538696 14.16479248 23.04538696 14.16479248 24.6875 15.25 C25.8343121 16.00443691 26.98136947 16.7585011 28.12866211 17.51220703 C30.39006097 18.99782902 32.65081897 20.48440507 34.91113281 21.97167969 C38.9501595 24.62392706 43.00294992 27.25430849 47.0625 29.875 C47.72854248 30.30522461 48.39458496 30.73544922 49.08081055 31.17871094 C50.39375395 32.02656274 51.70682155 32.87422225 53.02001953 33.72167969 C56.51520305 35.97824946 60.00739253 38.23944609 63.5 40.5 C64.91665358 41.41668689 66.33332022 42.3333536 67.75 43.25 C76.25 48.75 76.25 48.75 78.37670898 50.12646484 C79.78724222 51.03892431 81.19820949 51.95071318 82.60961914 52.86181641 C86.24905621 55.21241759 89.87921235 57.57575085 93.49609375 59.9609375 C108.38645528 69.75137052 120.57265553 76.70290402 138.8984375 73.4921875 C147.29028165 70.83261843 154.54233897 65.36174551 161.77832031 60.48779297 C165.32336065 58.11378464 168.91276044 55.80951874 172.5 53.5 C173.91689826 52.58369134 175.33356462 51.66702401 176.75 50.75 C190.91666667 41.58333333 205.08333333 32.41666667 219.25 23.25 C219.95205566 22.79568604 220.65411133 22.34137207 221.37744141 21.87329102 C222.7858127 20.96207771 224.19433989 20.05110531 225.60302734 19.14038086 C229.27296701 16.76728922 232.93962903 14.38933697 236.6015625 12.00390625 C237.73754883 11.26527344 237.73754883 11.26527344 238.89648438 10.51171875 C240.33370174 9.5770866 241.76997268 8.64099672 243.20507812 7.703125 C243.86185547 7.27644531 244.51863281 6.84976562 245.1953125 6.41015625 C246.04633545 5.85533569 246.04633545 5.85533569 246.91455078 5.28930664 C249.89747402 3.4451463 252.95272516 1.73578231 256 0 C256.09353661 17.72437296 256.16402481 35.44868166 256.20724869 53.17324829 C256.2278538 61.40350609 256.25593498 69.63361032 256.30175781 77.86376953 C256.34168862 85.03910649 256.36744773 92.2143322 256.37635398 99.38977718 C256.38155822 103.18743096 256.39374677 106.98476655 256.42292023 110.78231812 C256.45018837 114.3610435 256.45842227 117.93932139 256.45243073 121.51814079 C256.4540458 123.44896546 256.47550881 125.37974203 256.49768066 127.31044006 C256.45931178 135.43083464 255.53809994 140.96248635 250.03515625 147.2421875 C249.38417969 147.78101563 248.73320312 148.31984375 248.0625 148.875 C247.41410156 149.42929687 246.76570312 149.98359375 246.09765625 150.5546875 C240.85589437 154.16632976 236.18348501 154.29003288 230.02458191 154.26742554 C228.66681758 154.27422221 228.66681758 154.27422221 227.28162366 154.28115618 C224.24783722 154.29381869 221.21422987 154.29217861 218.18041992 154.29052734 C216.0054959 154.29651144 213.830574 154.30331672 211.65565491 154.31088257 C205.74650004 154.32856207 199.83740308 154.33323878 193.92822433 154.33451414 C188.99534471 154.33641293 184.06247859 154.34377026 179.12960416 154.35085833 C167.49093684 154.3671474 155.85230046 154.37202682 144.21362305 154.37060547 C132.20812847 154.36940397 120.20283868 154.3905063 108.19738692 154.4220928 C97.88980678 154.44824568 87.58228539 154.45897317 77.27467233 154.45769465 C71.11855364 154.45718472 64.96259466 154.46288538 58.80650902 154.48405075 C53.0157439 154.50341625 47.22529114 154.50356891 41.434515 154.48901749 C39.31090336 154.48692619 37.18727226 154.4916493 35.063694 154.5037384 C32.16088572 154.51919127 29.25915437 154.50988212 26.35636902 154.49447632 C25.51929183 154.50476344 24.68221464 154.51505057 23.81977147 154.52564943 C17.06187941 154.44658609 11.8653293 152.51090703 6.7578125 148.03515625 C5.94957031 147.05869141 5.94957031 147.05869141 5.125 146.0625 C4.57070312 145.41410156 4.01640625 144.76570312 3.4453125 144.09765625 C0.55282075 139.89963444 -0.24977967 136.25480751 -0.24050903 131.19767761 C-0.24325836 130.03806519 -0.24600769 128.87845276 -0.24884033 127.68370056 C-0.24164978 126.42062576 -0.23445923 125.15755096 -0.22705078 123.85620117 C-0.22648632 122.50572722 -0.22680391 121.15525265 -0.22793579 119.80477905 C-0.22850894 116.14604691 -0.21676077 112.48744627 -0.20278788 108.82874465 C-0.19027424 105.00239846 -0.18910952 101.17604916 -0.18673706 97.34968567 C-0.18052415 90.10725784 -0.1641159 82.86489049 -0.14403808 75.62248927 C-0.12167319 67.37586401 -0.11068417 59.12923584 -0.10064721 50.88258779 C-0.0797495 33.92169023 -0.04457721 16.96085151 0 0 Z " fill="hsl(0 0% 98%)" transform="translate(168,342)"/>
<path d="M0 0 C1.35776433 -0.00679667 1.35776433 -0.00679667 2.74295825 -0.01373065 C5.77674469 -0.02639316 8.81035204 -0.02475307 11.84416199 -0.02310181 C14.01908601 -0.02908591 16.19400791 -0.03589118 18.368927 -0.04345703 C24.27808187 -0.06113653 30.18717883 -0.06581325 36.09635758 -0.0670886 C41.0292372 -0.06898739 45.96210332 -0.07634473 50.89497775 -0.08343279 C62.53364507 -0.09972186 74.17228145 -0.10460128 85.81095886 -0.10317993 C97.81645344 -0.10197844 109.82174323 -0.12308076 121.82719499 -0.15466726 C132.13477512 -0.18082014 142.44229652 -0.19154763 152.74990958 -0.19026911 C158.90602827 -0.18975918 165.06198725 -0.19545984 171.21807289 -0.21662521 C177.00883801 -0.23599071 182.79929077 -0.23614337 188.59006691 -0.22159195 C190.71367855 -0.21950066 192.83730965 -0.22422376 194.96088791 -0.23631287 C197.86369618 -0.25176574 200.76542754 -0.24245658 203.66821289 -0.22705078 C204.50529008 -0.23733791 205.34236727 -0.24762503 206.20481044 -0.25822389 C212.9627025 -0.17916055 218.15925261 1.7565185 223.26676941 6.23226929 C227.38951999 11.21310432 230.02458191 14.59134538 230.02458191 21.26742554 C228.09465027 22.95223999 228.09465027 22.95223999 225.36442566 24.63070679 C224.35444519 25.26275024 223.34446472 25.8947937 222.30387878 26.54598999 C221.20108582 27.21718872 220.09829285 27.88838745 218.96208191 28.57992554 C217.82239545 29.28817506 216.68373431 29.99807697 215.54606628 30.70956421 C213.78918593 31.80788049 212.03165732 32.90499337 210.27076721 33.99687195 C204.46169324 37.59938724 198.73884103 41.32907945 193.02458191 45.07992554 C191.1263931 46.32119135 189.22796124 47.56208556 187.32926941 48.80258179 C186.43175964 49.38926636 185.53424988 49.97595093 184.60954285 50.58041382 C178.76969872 54.39164568 172.91058118 58.17314238 167.05290222 61.95687866 C163.54225395 64.22519353 160.03354078 66.49649852 156.52458191 68.76742554 C155.10792397 69.68410569 153.69125732 70.60077238 152.27458191 71.51742554 C151.57333191 71.97117554 150.87208191 72.42492554 150.14958191 72.89242554 C148.02458191 74.26742554 145.89958191 75.64242554 143.77458191 77.01742554 C143.07236511 77.47190063 142.37014832 77.92637573 141.64665222 78.3946228 C140.24011835 79.30453306 138.83322137 80.21388231 137.4259491 81.12265015 C133.72596646 83.51304496 130.03413194 85.91493696 126.35270691 88.33383179 C125.58635925 88.8352771 124.8200116 89.33672241 124.03044128 89.85336304 C122.56584323 90.81200904 121.10346401 91.77405672 119.64372253 92.74008179 C111.44284134 98.0957593 104.90302052 99.27920394 95.02458191 98.26742554 C91.27889585 97.16278459 88.28760066 95.39173686 85.02458191 93.26742554 C83.91856628 92.55070679 82.81255066 91.83398804 81.67301941 91.09555054 C79.12512159 89.42096407 76.59644145 87.72036585 74.07536316 86.00570679 C69.97252044 83.21896428 65.8184499 80.51658256 61.64958191 77.82992554 C60.9411615 77.37279175 60.23274109 76.91565796 59.50285339 76.44467163 C58.06271068 75.51564191 56.62236188 74.58693159 55.18180847 73.65853882 C51.62655765 71.36589292 48.07577997 69.06634181 44.52458191 66.76742554 C43.10793708 65.85072512 41.6912704 64.93405847 40.27458191 64.01742554 C14.77458191 47.51742554 14.77458191 47.51742554 12.64811707 46.14144897 C11.23636817 45.22798349 9.82458451 44.31457173 8.4127655 43.4012146 C4.79556498 41.06101699 1.17903749 38.71978968 -2.43635559 36.37680054 C-10.26175901 31.30683296 -18.09623866 26.25360172 -25.97541809 21.26742554 C-25.32053891 13.08143576 -21.85850352 8.74656192 -15.85432434 3.56430054 C-10.73194142 0.02868488 -6.00896585 -0.02205697 0 0 Z " fill="hsl(0 0% 98%)" transform="translate(193.9754180908203,303.7325744628906)"/>
<path d="M0 0 C9.21336447 0.54055238 18.17672581 1.71795587 27.26269531 3.31323242 C28.63953471 3.55046012 30.01646537 3.78715868 31.39347839 4.02337646 C35.10030884 4.66081792 38.80581318 5.30567449 42.51109791 5.95203185 C46.43601148 6.63543127 50.36208935 7.31207932 54.2880249 7.98957825 C60.89893187 9.1313858 67.50905693 10.27762756 74.11865234 11.42700195 C82.49361577 12.88335169 90.86972172 14.33300857 99.24626541 15.78023815 C106.55759834 17.04343395 113.86847445 18.3092664 121.17923641 19.57576203 C122.72027486 19.84269905 124.26132643 20.10956027 125.80239201 20.37634063 C147.55517695 24.14219328 169.28585428 28.01721665 191 32 C189.1573257 36.07523841 186.47914306 38.40705944 183.0625 41.1875 C182.47984375 41.67089844 181.8971875 42.15429688 181.296875 42.65234375 C179.53728128 44.109088 177.77001598 45.55594636 176 47 C175.06027344 47.76957031 174.12054688 48.53914063 173.15234375 49.33203125 C171.37389833 50.7856943 169.59393138 52.23749772 167.8125 53.6875 C164.68200334 56.26146392 161.58827539 58.87569086 158.5 61.5 C153.65040619 65.62101634 148.74839194 69.66991354 143.8125 73.6875 C140.68200334 76.26146392 137.58827539 78.87569086 134.5 81.5 C129.65040619 85.62101634 124.74839194 89.66991354 119.8125 93.6875 C116.68200088 96.26146594 113.5883659 98.87579466 110.5 101.5 C105.7308879 105.55012599 100.92087568 109.54352113 96.0703125 113.49609375 C87.03221214 120.86686008 78.01248049 128.26043009 69.125 135.8125 C44.18722797 157 44.18722797 157 42 157 C42.47115387 140.65583472 43.28183873 124.32544736 44.18734741 108.00018311 C44.31257689 105.70605396 44.43286767 103.41164996 44.54824829 101.11700439 C44.71387707 97.84922828 44.8976928 94.58294753 45.0859375 91.31640625 C45.13291275 90.32056015 45.179888 89.32471405 45.22828674 88.2986908 C45.28491989 87.38100418 45.34155304 86.46331757 45.39990234 85.51782227 C45.44351898 84.7146608 45.48713562 83.91149933 45.53207397 83.08399963 C46.13621007 80.39336196 46.74858803 79.60252674 49 78 C52.03601074 76.94483948 52.03601074 76.94483948 55.81054688 75.97875977 C56.49866959 75.79942902 57.1867923 75.62009827 57.89576721 75.43533325 C59.38748373 75.04783437 60.88042194 74.66501501 62.37440491 74.28634834 C64.73902008 73.68626216 67.09972601 73.0726028 69.45983887 72.45506287 C76.1695941 70.70225477 82.88608024 68.97583808 89.60400391 67.25463867 C93.71508153 66.20033489 97.82217581 65.13153608 101.92726135 64.05415154 C103.49185784 63.64688571 105.0579821 63.24544303 106.62559509 62.84994698 C108.81729252 62.29697819 111.00351325 61.72587621 113.18945312 61.15063477 C114.43505005 60.83103287 115.68064697 60.51143097 116.96398926 60.18214417 C120.24200851 58.90576814 121.4111682 58.1053472 123 55 C123.08916154 51.37350049 123.08916154 51.37350049 122 48 C119.77094752 46.41371299 118.46401346 45.97868842 115.72291565 46.10458374 C107.80244516 47.7384555 100.0111948 49.77046964 92.21484375 51.9140625 C90.82300975 52.29282143 89.4310445 52.67109837 88.03895569 53.04891968 C84.41052865 54.03471005 80.7834918 55.02550998 77.15686035 56.0178833 C71.32226434 57.6139651 65.48608076 59.20419299 59.64889717 60.79078293 C57.61521657 61.34465226 55.58247148 61.90185993 53.54978943 62.4593811 C52.32413773 62.7932785 51.09848602 63.1271759 49.83569336 63.47119141 C48.7541246 63.76716217 47.67255585 64.06313293 46.55821228 64.36807251 C44 65 44 65 42 65 C40.82258606 63.5320282 40.82258606 63.5320282 39.49926758 61.44018555 C38.99819992 60.6574678 38.49713226 59.87475006 37.98088074 59.0683136 C37.43676041 58.2040123 36.89264008 57.339711 36.33203125 56.44921875 C35.15149201 54.60275242 33.96997507 52.7569109 32.78759766 50.91162109 C32.16757874 49.94077576 31.54755981 48.96993042 30.90875244 47.96966553 C27.78012613 43.10210203 24.58284377 38.28043162 21.38671875 33.45703125 C20.1073033 31.52156275 18.82800668 29.5860157 17.54882812 27.65039062 C15.59222624 24.69147507 13.63488169 21.73305843 11.67602539 18.77563477 C9.74422773 15.85826932 7.81524509 12.93905986 5.88671875 10.01953125 C5.29316086 9.12498734 4.69960297 8.23044342 4.08805847 7.30879211 C3.54941666 6.49250839 3.01077484 5.67622467 2.45581055 4.83520508 C1.97983932 4.11609451 1.5038681 3.39698395 1.01347351 2.65608215 C0 1 0 1 0 0 Z " fill="hsl(0 0% 98%)" transform="translate(289,16)"/>
<path d="M0 0 C2.88381579 2.58803981 3.8491179 4.19529549 4.5625 8 C3.82958718 11.9088684 2.13722919 13.74009133 -1 16 C-4.5515283 17.72011758 -8.21181445 19.02161487 -11.9375 20.3125 C-12.91396484 20.67150391 -13.89042969 21.03050781 -14.89648438 21.40039062 C-25.48860143 25.17046619 -25.48860143 25.17046619 -31.25 23.25 C-33.51275631 21.63374549 -34.20297288 20.68090941 -35 18 C-34.67549333 11.83437322 -34.67549333 11.83437322 -32.70043945 9.39477539 C-30.8411642 7.86971587 -29.22596444 7.0953567 -26.98046875 6.24609375 C-26.20509766 5.94896484 -25.42972656 5.65183594 -24.63085938 5.34570312 C-23.82455078 5.04599609 -23.01824219 4.74628906 -22.1875 4.4375 C-20.99543945 3.98213867 -20.99543945 3.98213867 -19.77929688 3.51757812 C-6.07164434 -1.68656787 -6.07164434 -1.68656787 0 0 Z " fill="hsl(0 0% 98%)" transform="translate(244,105)"/>
<path d="M0 0 C2.98655661 1.4932783 4.53469946 2.62445527 5.625 5.84765625 C6.27083828 11.40792018 4.22997279 14.56442075 0.9375 18.9375 C-0.70637193 20.95992919 -2.35218965 22.98077843 -4 25 C-5.89970365 27.68946808 -7.74842217 30.4072357 -9.58984375 33.13671875 C-11 35 -11 35 -13 36 C-16.71288464 36.41254274 -18.54621504 36.26218686 -21.8125 34.375 C-24.61652344 31.33063169 -25.15403615 30.15897602 -25 26 C-21.69469033 16.35951346 -11.8159332 -1.9693222 0 0 Z " fill="hsl(0 0% 98%)" transform="translate(55,215)"/>
<path d="M0 0 C3.06458538 2.04305692 3.82153128 3.44079802 4.9375 6.9375 C5.01657172 10.81201437 4.36783145 11.92957501 2 15 C-0.66037378 16.94853108 -3.49121794 18.53210011 -6.375 20.125 C-7.13039062 20.55425781 -7.88578125 20.98351562 -8.6640625 21.42578125 C-10.12457023 22.25561519 -11.58832666 23.07976409 -13.05566406 23.89746094 C-14.66938999 24.81252702 -16.24987107 25.78593001 -17.8203125 26.7734375 C-21.07467586 28.60474591 -23.33917534 28.52297495 -27 28 C-30.69186542 25.40783917 -31.82883761 23.95850936 -32.625 19.5 C-31.86856521 15.26396519 -30.21647619 13.60868995 -27 11 C-23.98164662 8.90701774 -20.85976674 7.03654886 -17.6875 5.1875 C-16.87087891 4.68541016 -16.05425781 4.18332031 -15.21289062 3.66601562 C-9.842057 0.52054732 -6.23086737 -0.74797857 0 0 Z " fill="hsl(0 0% 98%)" transform="translate(142,148)"/>
<path d="M0 0 C3.3195126 0.9935161 4.34251915 2.80671927 6.21875 5.6640625 C7.5625 8.71484375 7.5625 8.71484375 8.71875 11.9765625 C10.12667493 15.83854854 11.56053255 19.49438356 13.53125 23.1015625 C15.27288414 26.77834568 15.92737157 28.67806616 15.21875 32.6640625 C13.2448309 36.08046095 12.03336541 37.38674662 8.28125 38.6640625 C4.43968996 38.6640625 3.15607443 38.14949086 0.21875 35.6640625 C-3.59134548 31.07965729 -5.82103754 25.55929706 -8.09375 20.1015625 C-8.36050537 19.47668945 -8.62726074 18.85181641 -8.90209961 18.20800781 C-10.62869441 13.88158481 -11.15256349 10.2998552 -10.78125 5.6640625 C-8.22064385 0.43151951 -5.38256765 0.09216725 0 0 Z " fill="hsl(0 0% 98%)" transform="translate(30.78125,317.3359375)"/>
<path d="M0 0 C2.90539797 2.26984216 3.01471542 4.06678536 3.8125 7.6875 C3.68893151 10.72054473 3.1251631 11.85107175 1.1484375 14.203125 C-1.48280418 16.59212539 -4.21235522 18.79590219 -7 21 C-7.94617188 21.83660156 -8.89234375 22.67320312 -9.8671875 23.53515625 C-10.79789063 24.34855469 -11.72859375 25.16195312 -12.6875 26 C-13.53699219 26.7425 -14.38648437 27.485 -15.26171875 28.25 C-18.58385887 30.37313662 -21.08536206 30.80358293 -25 31 C-27.94755732 29.65437601 -29.54277272 28.91445456 -31 26 C-31.62264091 21.98742525 -31.9989178 19.46899676 -29.671875 16.046875 C-22.1746164 8.29760771 -11.26591825 -2.90287464 0 0 Z " fill="hsl(0 0% 98%)" transform="translate(97,178)"/>
<path d="M0 0 C2.5 1.5 2.5 1.5 4 4 C4.77403846 9.41826923 4.77403846 9.41826923 4 12 C0.022804 17.07658351 -5.06182777 19.26934032 -10.8125 21.8125 C-11.67681641 22.21919922 -12.54113281 22.62589844 -13.43164062 23.04492188 C-18.90070402 25.50084091 -23.00244493 26.61974736 -29 26 C-32.06458538 23.95694308 -32.82153128 22.55920198 -33.9375 19.0625 C-34.01595511 15.21819961 -33.35078855 14.03431843 -31 11 C-28.54373379 9.34402838 -25.93554073 8.11485731 -23.25 6.875 C-22.5590625 6.54113281 -21.868125 6.20726562 -21.15625 5.86328125 C-19.1144614 4.88460439 -17.06111929 3.93719056 -15 3 C-14.36344482 2.70504639 -13.72688965 2.41009277 -13.07104492 2.10620117 C-8.22665617 -0.07328771 -5.23307809 -0.60051716 0 0 Z " fill="hsl(0 0% 98%)" transform="translate(192,124)"/>
<path d="M0 0 C2.81831785 2.59581908 3.85564038 4.23008205 4.5625 8 C3.77857068 12.18095639 2.30548014 13.31819535 -1 16 C-4.33316541 17.43729327 -7.7463008 18.38129243 -11.25 19.3125 C-12.15363281 19.57611328 -13.05726563 19.83972656 -13.98828125 20.11132812 C-19.82956519 21.7292377 -24.9401426 22.39765959 -31 22 C-33.5625 20.5 -33.5625 20.5 -35 18 C-35.54153233 15.21823392 -35.73026776 12.74924335 -35 10 C-32.10250162 6.54632676 -29.65758823 5.25726379 -25.3515625 4.04296875 C-23.71960938 3.58180664 -23.71960938 3.58180664 -22.0546875 3.11132812 C-20.35699219 2.6540332 -20.35699219 2.6540332 -18.625 2.1875 C-16.93890625 1.70120117 -16.93890625 1.70120117 -15.21875 1.20507812 C-5.60700067 -1.44781014 -5.60700067 -1.44781014 0 0 Z " fill="hsl(0 0% 98%)" transform="translate(297,89)"/>
<path d="M0 0 C2.69187602 1.40298719 4.85687297 3.24691253 7.125 5.25 C8.29259024 6.23636781 9.46184459 7.22076937 10.6328125 8.203125 C11.19242676 8.67927246 11.75204102 9.15541992 12.32861328 9.64599609 C14.76857006 11.62262483 17.37319011 13.28188307 20 15 C22.3755222 17.3755222 22.93301307 18.60645176 23.5 21.9375 C22.81303325 26.14517131 21.4272611 27.52070473 18 30 C12.9580596 31.2100657 9.9854291 29.65081778 5.75 27.0625 C-9.71737421 16.56525157 -9.71737421 16.56525157 -12 12 C-12.56872038 4.9478673 -12.56872038 4.9478673 -10.5 1.5 C-7.03726571 -0.57764058 -3.89435277 -0.68964348 0 0 Z " fill="hsl(0 0% 98%)" transform="translate(61,364)"/>
<path d="M0 0 C2.375 1.5 2.375 1.5 4 4 C4.60610987 10.03922871 3.80700646 16.24427144 3.125 22.25 C3.00705078 23.41402344 3.00705078 23.41402344 2.88671875 24.6015625 C1.83296323 34.1015738 1.83296323 34.1015738 -1.75 37.8125 C-4.77894929 39.41111212 -6.61402051 39.48371136 -10 39 C-12.66015625 37.49609375 -12.66015625 37.49609375 -15 35 C-15.46668485 31.98497022 -15.61890908 29.62219915 -15.5 26.625 C-15.48300049 25.83150146 -15.46600098 25.03800293 -15.44848633 24.22045898 C-14.83300779 6.62905957 -14.83300779 6.62905957 -10.58203125 1.18359375 C-6.9962976 -1.49906624 -4.13155959 -1.09612805 0 0 Z " fill="hsl(0 0% 98%)" transform="translate(31,264)"/>
<path d="M0 0 C1.49549713 0.13689065 2.99164271 0.26683567 4.48828125 0.390625 C6.01310635 0.5303197 7.53784745 0.67093447 9.0625 0.8125 C9.78856445 0.86994385 10.51462891 0.9273877 11.26269531 0.98657227 C14.60804153 1.3403015 16.73839203 1.80638523 19.46484375 3.82421875 C21.09877878 6.13999944 21.54370242 7.20304504 21.5 10 C21.5103125 10.66 21.520625 11.32 21.53125 12 C20.71059469 15.08952588 19.6216592 16.15632931 17 18 C14.00987759 18.57097429 11.09751467 18.51968839 8.0625 18.4375 C7.21945313 18.42428711 6.37640625 18.41107422 5.5078125 18.39746094 C-12.23405377 17.89112914 -12.23405377 17.89112914 -16.8125 13.10546875 C-18.63182842 9.87975159 -18.50966734 7.63137981 -18 4 C-13.89654454 -3.29503192 -7.11886567 -0.95789018 0 0 Z " fill="hsl(0 0% 98%)" transform="translate(115,390)"/>
</svg>
